# xmcd
#
# Track frame offsets:
# 150
# 12238
# 24522
# 35829
# 47094
# 59143
# 71372
# 83537
# 94888
# 104152
#
# Disc length: 1549 seconds
#
#
# Revision: 2
# Processed by: cddbd v1.5.1PL2 Copyright (c) Steve Scherf et al.
# Submitted via: FreeRIP 2.945 
#
DISCID=86060b0a
DTITLE=Various Artist - #1 Country [CD 3)
DYEAR=2003
DGENRE=Classic Country
TTITLE0=Johnny Paycheck - Take This Job And Shove It
TTITLE1=Freddy Fender - Wasted Days And Wasted Nights
TTITLE2=Ernie Ashworth - Talk Back Trembling Lips
TTITLE3=Wynn Stewart - It's Such A Pretty World Today
TTITLE4=Hank Thompson - The Wild Side Of Life
TTITLE5=Jeanne Pruett - Satin Sheets
TTITLE6=Jack Blanchard and Misty Morgan - Tennessee Bird Walk
TTITLE7=Kitty Wells - Hearthbreak U.S.A.
TTITLE8=Jimmy Dean - The First Thing Every Morning (And The Last Thing Every Night)
TTITLE9=Porter Wagoner - A Satisfied Mind
EXTD=K-Tel
EXTT0=
EXTT1=
EXTT2=
EXTT3=
EXTT4=
EXTT5=
EXTT6=
EXTT7=
EXTT8=
EXTT9=
PLAYORDER=
